<?xml version="1.0" encoding="UTF-8"?><svg xmlns="http://www.w3.org/2000/svg" xmlns:xlink="http://www.w3.org/1999/xlink" viewBox="0 0 32 32" version="1.1"><path d="M5 5v22h22V5zm2 2h18v18H7zm3 4v10h2v-4h1c1.645 0 3-1.355 3-3s-1.355-3-3-3zm2 2h1c.566 0 1 .434 1 1 0 .566-.434 1-1 1h-1zm7.5 0a2.518 2.518 0 0 0-2.5 2.5c0 1.367 1.133 2.5 2.5 2.5.285 0 .5.215.5.5 0 .363-.063.5-.5.5-.379 0-.434-.086-.438-.094-.003-.008-.062-.039-.062-.281h-2c0 .566.156 1.207.625 1.688.469.48 1.148.687 1.875.687 1.41 0 2.5-1.207 2.5-2.5 0-1.367-1.133-2.5-2.5-2.5a.489.489 0 0 1-.5-.5c0-.285.215-.5.5-.5.27 0 .344.059.406.125a.46.46 0 0 1 .094.281h2c0-.566-.195-1.152-.625-1.625-.43-.472-1.117-.781-1.875-.781z" id="surface1"/><metadata><rdf:RDF xmlns:rdf="http://www.w3.org/1999/02/22-rdf-syntax-ns#" xmlns:rdfs="http://www.w3.org/2000/01/rdf-schema#" xmlns:dc="http://purl.org/dc/elements/1.1/"><rdf:Description about="https://iconscout.com/legal#licenses" dc:title="adobe,photoshop" dc:description="adobe,photoshop" dc:publisher="Iconscout" dc:date="2017-12-30" dc:format="image/svg+xml" dc:language="en"><dc:creator><rdf:Bag><rdf:li>Icons8</rdf:li></rdf:Bag></dc:creator></rdf:Description></rdf:RDF></metadata></svg>